<!-- Generator: Adobe Illustrator 19.1.0, SVG Export Plug-In  -->
<svg version="1.1"
	 xmlns="http://www.w3.org/2000/svg" xmlns:xlink="http://www.w3.org/1999/xlink" xmlns:a="http://ns.adobe.com/AdobeSVGViewerExtensions/3.0/"
	 x="0px" y="0px" width="32px" height="32px" viewBox="0 0 32 32" enable-background="new 0 0 32 32" xml:space="preserve">
<defs>
</defs>
<g fill="#FFFFFF">
	<g>
		<g>
			<path d="M16,0C7.2,0,0,7.2,0,16s7.2,16,16,16s16-7.2,16-16S24.8,0,16,0z M16,30C8.3,30,2,23.7,2,16S8.3,2,16,2
				s14,6.3,14,14S23.7,30,16,30z"/>
		</g>
	</g>
	<path d="M9,23.5v-15C9,8.1,9.4,7.8,9.8,8l14.4,7.5c0.4,0.2,0.4,0.8,0,1L9.8,24C9.4,24.2,9,23.9,9,23.5z"/>
</g>
</svg>
