<?xml version="1.0" encoding="utf-8"?>
<!-- Generator: Adobe Illustrator 20.1.0, SVG Export Plug-In . SVG Version: 6.00 Build 0)  -->
<svg version="1.1" id="Layer_1" xmlns="http://www.w3.org/2000/svg" xmlns:xlink="http://www.w3.org/1999/xlink" x="0px" y="0px"
	 viewBox="0 0 32 32" style="enable-background:new 0 0 32 32;" xml:space="preserve">
<g>
	<g>
		<g>
			<path class="st0" d="M16,0C7.2,0,0,7.2,0,16s7.2,16,16,16s16-7.2,16-16S24.8,0,16,0z M16,30C8.3,30,2,23.7,2,16C2,8.3,8.3,2,16,2
				s14,6.3,14,14C30,23.7,23.7,30,16,30z"/>
		</g>
	</g>
	<path class="st0" d="M23.9,13c0-1.3-1-2.3-2.3-2.3c-1.8-0.1-3.7-0.1-5.6-0.1c-1.9,0-3.8,0-5.6,0.1c-1.3,0-2.3,1-2.3,2.3
		C8,14,8,15,8,16c0,1,0,2,0.1,3c0,1.3,1,2.3,2.3,2.3c1.8,0.1,3.7,0.1,5.6,0.1c1.9,0,3.8,0,5.6-0.1c1.3,0,2.3-1,2.3-2.3
		c0.1-1,0.1-2,0.1-3C24,15,24,14,23.9,13z M19.5,16.2L14.1,19c-0.2,0.1-0.3,0-0.3-0.2v-5.6c0-0.2,0.1-0.3,0.3-0.2l5.4,2.8
		C19.7,15.9,19.7,16.1,19.5,16.2z"/>
</g>
</svg>
