<!-- Generator: Adobe Illustrator 19.1.0, SVG Export Plug-In  -->
<svg version="1.1"
	 xmlns="http://www.w3.org/2000/svg" xmlns:xlink="http://www.w3.org/1999/xlink" xmlns:a="http://ns.adobe.com/AdobeSVGViewerExtensions/3.0/"
	 x="0px" y="0px" width="32px" height="32px" viewBox="0 0 32 32" enable-background="new 0 0 32 32" xml:space="preserve">
<defs>
</defs>
<g>
	<g>
		<g>
			<path d="M16,0C7.2,0,0,7.2,0,16s7.2,16,16,16s16-7.2,16-16S24.8,0,16,0z M16,30C8.3,30,2,23.7,2,16S8.3,2,16,2
				s14,6.3,14,14S23.7,30,16,30z"/>
		</g>
	</g>
	<g>
		<g>
			<path d="M23.2,10H8.8C8.4,10,8,10.4,8,10.8v12.4C8,23.6,8.4,24,8.8,24h14.4c0.4,0,0.8-0.4,0.8-0.8V10.8
				C24,10.4,23.6,10,23.2,10z M22.5,21.6c0,0.5-0.4,0.9-0.9,0.9H10.4c-0.5,0-0.9-0.4-0.9-0.9v-7.1h13V21.6z"/>
		</g>
	</g>
	<path d="M12.3,11.5h-0.5c-0.4,0-0.7-0.3-0.7-0.7V9.2c0-0.4,0.3-0.7,0.7-0.7h0.5c0.4,0,0.7,0.3,0.7,0.7v1.5
		C13,11.2,12.7,11.5,12.3,11.5z"/>
	<path d="M16.3,11.5h-0.5c-0.4,0-0.7-0.3-0.7-0.7V9.2c0-0.4,0.3-0.7,0.7-0.7h0.5c0.4,0,0.7,0.3,0.7,0.7v1.5
		C17,11.2,16.7,11.5,16.3,11.5z"/>
	<path d="M20.3,11.5h-0.5c-0.4,0-0.7-0.3-0.7-0.7V9.2c0-0.4,0.3-0.7,0.7-0.7h0.5c0.4,0,0.7,0.3,0.7,0.7v1.5
		C21,11.2,20.7,11.5,20.3,11.5z"/>
</g>
</svg>
