<!-- Generator: Adobe Illustrator 19.1.0, SVG Export Plug-In  -->
<svg version="1.1"
	 xmlns="http://www.w3.org/2000/svg" xmlns:xlink="http://www.w3.org/1999/xlink" xmlns:a="http://ns.adobe.com/AdobeSVGViewerExtensions/3.0/"
	 x="0px" y="0px" width="32px" height="32px" viewBox="0 0 32 32" enable-background="new 0 0 32 32" xml:space="preserve">
<defs>
</defs>
<g>
	<g>
		<g>
			<path d="M16,0C7.2,0,0,7.2,0,16s7.2,16,16,16s16-7.2,16-16S24.8,0,16,0z M16,30C8.3,30,2,23.7,2,16S8.3,2,16,2
				s14,6.3,14,14S23.7,30,16,30z"/>
		</g>
	</g>
	<polygon points="23.4,15.8 23.4,8.7 17,12.3 19.3,13.5 16.5,18.1 11.7,15.8 7.4,22.7 9.2,23.7 12.5,18.4 17.4,20.7 
		21.1,14.5 	"/>
</g>
</svg>
