<!-- Generator: Adobe Illustrator 19.1.0, SVG Export Plug-In  -->
<svg version="1.1"
	 xmlns="http://www.w3.org/2000/svg" xmlns:xlink="http://www.w3.org/1999/xlink" xmlns:a="http://ns.adobe.com/AdobeSVGViewerExtensions/3.0/"
	 x="0px" y="0px" width="32px" height="32px" viewBox="0 0 32 32" enable-background="new 0 0 32 32" xml:space="preserve">
<defs>
</defs>
<g>
	<g>
		<g>
			<path d="M16,0C7.2,0,0,7.2,0,16s7.2,16,16,16s16-7.2,16-16S24.8,0,16,0z M16,30C8.3,30,2,23.7,2,16S8.3,2,16,2
				s14,6.3,14,14S23.7,30,16,30z"/>
		</g>
	</g>
	
		<polyline display="none" stroke="#2DCCA4" stroke-width="3" stroke-linecap="round" stroke-linejoin="round" stroke-miterlimit="10" points="
		15.2,8 15.2,18.7 22.8,14.1 	"/>
	<path d="M15.9,20.1h-2.4c-0.3,0-0.5-0.2-0.5-0.5v-13c0-0.3,0.2-0.5,0.5-0.5h2c0.3,0,0.5,0.2,0.5,0.5v9.6
		c0,0.2,0.2,0.3,0.4,0.2l5.2-3c0.2-0.1,0.5-0.1,0.7,0.2l1,1.8c0.1,0.2,0.1,0.5-0.2,0.7l-6.9,4C16,20.1,16,20.1,15.9,20.1z"/>
</g>
</svg>
