<!-- Generator: Adobe Illustrator 19.1.0, SVG Export Plug-In  -->
<svg version="1.1"
	 xmlns="http://www.w3.org/2000/svg" xmlns:xlink="http://www.w3.org/1999/xlink" xmlns:a="http://ns.adobe.com/AdobeSVGViewerExtensions/3.0/"
	 x="0px" y="0px" width="53.6px" height="38.5px" viewBox="0 0 53.6 38.5" enable-background="new 0 0 53.6 38.5"
	 xml:space="preserve">
<defs>
</defs>
<path d="M0,38.5l0.5-5.9c9.6-2.2,14.4-6.1,14.4-11.8c0-1.6-1.5-3.4-4.5-5.4c-3.1-1.9-4.6-4.3-4.6-7.1
	c0-2.5,0.8-4.5,2.4-6C9.8,0.8,11.9,0,14.5,0c3.2,0,5.8,1.1,7.9,3.2c2.1,2.1,3.1,4.9,3.1,8.3c0,6.9-2.2,12.7-6.6,17.4
	C14.4,33.7,8.2,36.9,0,38.5z M28.2,38.5l0.5-5.9c9.6-2.2,14.4-6.1,14.4-11.8c0-1.6-1.5-3.4-4.5-5.4c-3.1-1.9-4.6-4.3-4.6-7.1
	c0-2.5,0.8-4.5,2.3-6C37.8,0.8,39.9,0,42.6,0c3.2,0,5.8,1.1,7.9,3.2c2.1,2.1,3.1,4.9,3.1,8.3c0,7-2.2,12.8-6.6,17.5
	C42.5,33.8,36.3,36.9,28.2,38.5z"/>
</svg>
