<!-- Generator: Adobe Illustrator 19.1.0, SVG Export Plug-In  -->
<svg version="1.1"
	 xmlns="http://www.w3.org/2000/svg" xmlns:xlink="http://www.w3.org/1999/xlink" xmlns:a="http://ns.adobe.com/AdobeSVGViewerExtensions/3.0/"
	 x="0px" y="0px" width="53.6px" height="38.5px" viewBox="0 0 53.6 38.5" enable-background="new 0 0 53.6 38.5"
	 xml:space="preserve">
<defs>
</defs>
<path d="M25.5,0l-0.5,5.9C15.4,8,10.6,12,10.6,17.7c0,1.6,1.5,3.4,4.6,5.4c3,1.9,4.5,4.3,4.5,7.1
	c0,2.5-0.8,4.5-2.4,6c-1.6,1.5-3.7,2.3-6.3,2.3c-3.1,0-5.7-1.1-7.8-3.2C1.1,33.2,0,30.4,0,27c0-6.8,2.2-12.5,6.5-17.3
	C10.9,4.9,17.2,1.7,25.5,0z M53.6,0L53,5.9C43.5,8.1,38.7,12,38.7,17.7c0,1.6,1.5,3.4,4.6,5.4c3,1.9,4.5,4.3,4.5,7.1
	c0,2.5-0.8,4.5-2.4,6c-1.6,1.5-3.7,2.3-6.4,2.3c-3.1,0-5.7-1.1-7.8-3.2c-2.1-2.1-3.1-4.9-3.1-8.3c0-6.9,2.2-12.7,6.5-17.4
	C39,4.8,45.3,1.6,53.6,0z"/>
</svg>