<!-- Generator: Adobe Illustrator 19.1.0, SVG Export Plug-In  -->
<svg version="1.1"
	 xmlns="http://www.w3.org/2000/svg" xmlns:xlink="http://www.w3.org/1999/xlink" xmlns:a="http://ns.adobe.com/AdobeSVGViewerExtensions/3.0/"
	 x="0px" y="0px" width="32px" height="32px" viewBox="0 0 32 32" enable-background="new 0 0 32 32" xml:space="preserve">
<defs>
</defs>
<g>
	<g>
		<path d="M16,0C7.2,0,0,7.2,0,16s7.2,16,16,16s16-7.2,16-16S24.8,0,16,0z M16,30C8.3,30,2,23.7,2,16S8.3,2,16,2
			s14,6.3,14,14S23.7,30,16,30z"/>
	</g>
	<path d="M22.6,14.1c-0.9,0-1.6,0.6-1.8,1.4h-4.9v-5h2.9c0.2,0.8,0.9,1.4,1.8,1.4c1,0,1.9-0.8,1.9-1.9
		s-0.8-1.9-1.9-1.9c-0.9,0-1.6,0.6-1.8,1.4h-3.9v6h-3.1c-0.2-1.2-1.3-2.1-2.6-2.1c-1.5,0-2.6,1.2-2.6,2.6s1.2,2.6,2.6,2.6
		c1.3,0,2.3-0.9,2.6-2.1h3.1v6h3.9c0.2,0.8,0.9,1.4,1.8,1.4c1,0,1.9-0.8,1.9-1.9s-0.8-1.9-1.9-1.9c-0.9,0-1.6,0.6-1.8,1.4h-2.9v-5
		h4.9c0.2,0.8,0.9,1.4,1.8,1.4c1,0,1.9-0.8,1.9-1.9S23.6,14.1,22.6,14.1z"/>
</g>
</svg>
