<!-- Generator: Adobe Illustrator 19.1.0, SVG Export Plug-In  -->
<svg version="1.1"
	 xmlns="http://www.w3.org/2000/svg" xmlns:xlink="http://www.w3.org/1999/xlink" xmlns:a="http://ns.adobe.com/AdobeSVGViewerExtensions/3.0/"
	 x="0px" y="0px" width="32px" height="32px" viewBox="0 0 32 32" enable-background="new 0 0 32 32" xml:space="preserve">
<defs>
</defs>
<g>
	<g>
		<g>
			<path d="M16,0C7.2,0,0,7.2,0,16s7.2,16,16,16s16-7.2,16-16S24.8,0,16,0z M16,30C8.3,30,2,23.7,2,16S8.3,2,16,2
				s14,6.3,14,14S23.7,30,16,30z"/>
		</g>
	</g>
	<path d="M14.8,16.7c1.3-0.4,3.2-0.6,4.3-0.7c0.5-0.6,0.7-0.9,1.1-1.5c-0.6-0.3-1.8-0.5-3-0.5c1-0.3,3-0.8,4.1-0.9
		c0.4-0.7,0.7-1.2,1-1.8c-0.5-0.1-2.1-0.3-3-0.1c0.8-0.4,2.8-0.9,3.7-1.1c0.6-1.2,0.9-2,0.9-2s-5.5,0.1-9.6,4.9
		C10.7,16.8,7.9,24,7.9,24s0.8,0,1.2-0.3c0.5-0.5,1.2-2.3,2.7-4.3c2.3,0.5,4.3-0.5,6-2C17.2,17,16.3,16.7,14.8,16.7z"/>
</g>
</svg>
