<!-- Generator: Adobe Illustrator 19.1.0, SVG Export Plug-In  -->
<svg version="1.1"
	 xmlns="http://www.w3.org/2000/svg" xmlns:xlink="http://www.w3.org/1999/xlink" xmlns:a="http://ns.adobe.com/AdobeSVGViewerExtensions/3.0/"
	 x="0px" y="0px" width="14px" height="14px" viewBox="0 0 14 14" enable-background="new 0 0 14 14" xml:space="preserve">
<defs>
</defs>
<path id="XMLID_1_" d="M12.9,14c-0.3,0-0.6-0.1-0.8-0.3l-2.9-2.9c-1,0.7-2.2,1-3.4,1C2.6,11.8,0,9.2,0,5.9
	S2.6,0,5.9,0s5.9,2.7,5.9,5.9c0,1.2-0.4,2.4-1,3.4l2.9,2.9c0.2,0.2,0.3,0.5,0.3,0.8C14,13.5,13.5,14,12.9,14z M5.9,1.5
	c-2.4,0-4.4,2-4.4,4.4s2,4.4,4.4,4.4s4.4-2,4.4-4.4S8.3,1.5,5.9,1.5z"/>
</svg>
