<!-- Generator: Adobe Illustrator 19.1.0, SVG Export Plug-In  -->
<svg version="1.1"
	 xmlns="http://www.w3.org/2000/svg" xmlns:xlink="http://www.w3.org/1999/xlink" xmlns:a="http://ns.adobe.com/AdobeSVGViewerExtensions/3.0/"
	 x="0px" y="0px" width="32px" height="32px" viewBox="0 0 32 32" enable-background="new 0 0 32 32" xml:space="preserve">
<defs>
</defs>
<g>
	<g>
		<g>
			<path d="M16,0C7.2,0,0,7.2,0,16s7.2,16,16,16s16-7.2,16-16S24.8,0,16,0z M16,30C8.3,30,2,23.7,2,16
				C2,8.3,8.3,2,16,2s14,6.3,14,14C30,23.7,23.7,30,16,30z"/>
		</g>
	</g>
	<path id="XMLID_1_" d="M19.9,16h-2.2v8h-3.3v-8h-1.6v-2.8h1.6v-1.8c0-1.3,0.6-3.4,3.4-3.4l2.5,0v2.7h-1.8
		c-0.3,0-0.7,0.1-0.7,0.8v1.7h2.5L19.9,16z"/>
</g>
</svg>
