<!-- Generator: Adobe Illustrator 19.1.0, SVG Export Plug-In  -->
<svg version="1.1"
	 xmlns="http://www.w3.org/2000/svg" xmlns:xlink="http://www.w3.org/1999/xlink" xmlns:a="http://ns.adobe.com/AdobeSVGViewerExtensions/3.0/"
	 x="0px" y="0px" width="32px" height="32px" viewBox="0 0 32 32" enable-background="new 0 0 32 32" xml:space="preserve">
<defs>
</defs>
<g>
	<g>
		<g>
			<path d="M16,0C7.2,0,0,7.2,0,16s7.2,16,16,16s16-7.2,16-16S24.8,0,16,0z M16,30C8.3,30,2,23.7,2,16
				C2,8.3,8.3,2,16,2s14,6.3,14,14C30,23.7,23.7,30,16,30z"/>
		</g>
	</g>
	<path d="M19.9,13.1c-1.8,0-2.6,1-3.1,1.7v-1.5h-3.4c0,1,0,10.3,0,10.3h3.4v-5.8c0-0.3,0-0.6,0.1-0.8
		c0.2-0.6,0.8-1.3,1.8-1.3c1.2,0,1.7,0.9,1.7,2.3v5.5h3.4v-5.9C23.9,14.6,22.2,13.1,19.9,13.1L19.9,13.1z M16.8,14.8L16.8,14.8
		C16.8,14.8,16.8,14.8,16.8,14.8L16.8,14.8z M16.8,14.8 M8.1,13.3h3.4v10.3H8.1V13.3z M9.8,8.4c-1.2,0-1.9,0.8-1.9,1.8
		c0,1,0.7,1.8,1.9,1.8h0c1.2,0,1.9-0.8,1.9-1.8C11.7,9.1,11,8.4,9.8,8.4L9.8,8.4z M9.8,8.4"/>
</g>
</svg>
