<!-- Generator: Adobe Illustrator 19.1.0, SVG Export Plug-In  -->
<svg version="1.1"
	 xmlns="http://www.w3.org/2000/svg" xmlns:xlink="http://www.w3.org/1999/xlink" xmlns:a="http://ns.adobe.com/AdobeSVGViewerExtensions/3.0/"
	 x="0px" y="0px" width="16px" height="16px" viewBox="0 0 16 16" enable-background="new 0 0 16 16" xml:space="preserve">
<defs>
</defs>
<path fill="#FFFFFF" d="M12.9,9.7c-0.8,0-1.6,0.3-2.2,0.9L6.2,8.4c0-0.2,0-0.4,0-0.6c0-0.1,0-0.1,0-0.2l4.5-2.2
	c0.6,0.5,1.3,0.9,2.2,0.9c1.7,0,3.1-1.4,3.1-3.1S14.6,0,12.9,0S9.7,1.4,9.7,3.1c0,0.1,0,0.3,0,0.4L5.3,5.8C4.7,5.2,3.8,4.8,2.9,4.9
	C1.2,5-0.1,6.5,0,8.2c0.1,1.7,1.6,3,3.3,2.9c0.8,0,1.4-0.4,2-0.9l4.5,2.2c0,0.1,0,0.2,0,0.4c0,1.7,1.4,3.1,3.1,3.1s3.1-1.4,3.1-3.1
	S14.6,9.7,12.9,9.7z"/>
</svg>
