<!-- Generator: Adobe Illustrator 19.1.0, SVG Export Plug-In  -->
<svg version="1.1"
	 xmlns="http://www.w3.org/2000/svg" xmlns:xlink="http://www.w3.org/1999/xlink" xmlns:a="http://ns.adobe.com/AdobeSVGViewerExtensions/3.0/"
	 x="0px" y="0px" width="32px" height="32px" viewBox="0 0 32 32" enable-background="new 0 0 32 32" xml:space="preserve">
<defs>
</defs>
<g>
	<g>
		<g>
			<path d="M16,0C7.2,0,0,7.2,0,16s7.2,16,16,16s16-7.2,16-16S24.8,0,16,0z M16,30C8.3,30,2,23.7,2,16S8.3,2,16,2
				s14,6.3,14,14S23.7,30,16,30z"/>
		</g>
	</g>
	<g>
		<g>
			<path d="M21.7,11.7l-3.4-3.4C18.1,8.1,17.9,8,17.6,8h-6.8C10.4,8,10,8.4,10,8.8v14.4c0,0.4,0.4,0.8,0.8,0.8h10.4
				c0.4,0,0.8-0.4,0.8-0.8V12.4C22,12.1,21.9,11.9,21.7,11.7z M20,22h-8V10h4v3.1c0,0.5,0.4,0.9,0.9,0.9H20V22z"/>
		</g>
	</g>
</g>
</svg>
