<!-- Generator: Adobe Illustrator 19.1.0, SVG Export Plug-In  -->
<svg version="1.1"
	 xmlns="http://www.w3.org/2000/svg" xmlns:xlink="http://www.w3.org/1999/xlink" xmlns:a="http://ns.adobe.com/AdobeSVGViewerExtensions/3.0/"
	 x="0px" y="0px" width="14px" height="13.4px" viewBox="0 0 14 13.4" enable-background="new 0 0 14 13.4" xml:space="preserve">
<defs>
</defs>
<path fill-rule="evenodd" clip-rule="evenodd" d="M3.2,13.4v-9h-3v9H3.2L3.2,13.4z M1.7,3.1c1,0,1.7-0.7,1.7-1.6
	C3.4,0.7,2.7,0,1.7,0C0.7,0,0,0.7,0,1.6C0,2.4,0.7,3.1,1.7,3.1L1.7,3.1L1.7,3.1z M4.8,13.4c0,0,0-8.2,0-9h3v1.3h0
	C8.2,5,8.9,4.1,10.5,4.1c2,0,3.5,1.3,3.5,4.1v5.2h-3V8.6c0-1.2-0.4-2-1.5-2c-0.8,0-1.3,0.6-1.5,1.1C7.9,7.8,7.8,8.1,7.8,8.3v5H4.8
	L4.8,13.4z"/>
</svg>
