<!-- Generator: Adobe Illustrator 19.1.0, SVG Export Plug-In  -->
<svg version="1.1"
	 xmlns="http://www.w3.org/2000/svg" xmlns:xlink="http://www.w3.org/1999/xlink" xmlns:a="http://ns.adobe.com/AdobeSVGViewerExtensions/3.0/"
	 x="0px" y="0px" width="16px" height="13.3px" viewBox="0 0 16 13.3" enable-background="new 0 0 16 13.3" xml:space="preserve">
<defs>
</defs>
<path id="XMLID_1_" d="M14.5,0H1.5C0.7,0,0,0.7,0,1.5v10.2c0,0.9,0.7,1.5,1.5,1.5h12.9c0.9,0,1.5-0.7,1.5-1.5V1.5
	C16,0.7,15.3,0,14.5,0z M13.1,2L8,7.1L2.9,2H13.1z M2,11.3V3l5.5,5.6C7.7,8.7,7.8,8.8,8,8.8s0.3-0.1,0.5-0.2L14,3v8.4H2z"/>
</svg>
