<!-- Generator: Adobe Illustrator 19.1.0, SVG Export Plug-In  -->
<svg version="1.1"
	 xmlns="http://www.w3.org/2000/svg" xmlns:xlink="http://www.w3.org/1999/xlink" xmlns:a="http://ns.adobe.com/AdobeSVGViewerExtensions/3.0/"
	 x="0px" y="0px" width="16px" height="12.3px" viewBox="0 0 16 12.3" enable-background="new 0 0 16 12.3" xml:space="preserve">
<defs>
</defs>
<g>
	<g>
		<path d="M12.3,5.5H6.5v1.9H10C9.5,9,8,10.2,6.1,10.2C3.9,10.2,2,8.4,2,6.1C2,3.9,3.9,2,6.1,2C7.3,2,8.3,2.5,9,3.3
			l1.4-1.5C9.3,0.7,7.8,0,6.1,0C2.7,0,0,2.7,0,6.1s2.7,6.1,6.1,6.1c3,0,5.6-2.1,6.1-4.9L12.3,5.5L12.3,5.5L12.3,5.5z"/>
		<polygon points="16,5.5 14.8,5.5 14.8,4.3 13.8,4.3 13.8,5.5 12.7,5.5 12.7,6.5 13.8,6.5 13.8,7.6 14.8,7.6 
			14.8,6.5 16,6.5 		"/>
	</g>
</g>
</svg>
