<svg style="display: none;"><symbol viewBox="0 0 32 32" id="shape-icon-category"><title>icon-category</title>  <g> <g> <path d="M16,0C7.2,0,0,7.2,0,16s7.2,16,16,16s16-7.2,16-16S24.8,0,16,0z M16,30C8.3,30,2,23.7,2,16S8.3,2,16,2
			s14,6.3,14,14S23.7,30,16,30z"/> </g> <path d="M22.6,14.1c-0.9,0-1.6,0.6-1.8,1.4h-4.9v-5h2.9c0.2,0.8,0.9,1.4,1.8,1.4c1,0,1.9-0.8,1.9-1.9
		s-0.8-1.9-1.9-1.9c-0.9,0-1.6,0.6-1.8,1.4h-3.9v6h-3.1c-0.2-1.2-1.3-2.1-2.6-2.1c-1.5,0-2.6,1.2-2.6,2.6s1.2,2.6,2.6,2.6
		c1.3,0,2.3-0.9,2.6-2.1h3.1v6h3.9c0.2,0.8,0.9,1.4,1.8,1.4c1,0,1.9-0.8,1.9-1.9s-0.8-1.9-1.9-1.9c-0.9,0-1.6,0.6-1.8,1.4h-2.9v-5
		h4.9c0.2,0.8,0.9,1.4,1.8,1.4c1,0,1.9-0.8,1.9-1.9S23.6,14.1,22.6,14.1z"/> </g> </symbol><symbol viewBox="0 0 12.7 12.7" id="shape-icon-close"><title>icon-close</title>  <g> <rect x="5.4" y="-1.6" transform="matrix(0.7071 -0.7071 0.7071 0.7071 -2.636 6.364)" width="2" height="16"/> <rect x="-1.6" y="5.4" transform="matrix(-0.7071 0.7071 -0.7071 -0.7071 15.364 6.364)" width="16" height="2"/> </g> </symbol><symbol viewBox="0 0 53.6 38.5" id="shape-icon-closequote"><title>icon-closequote</title>  <path d="M0,38.5l0.5-5.9c9.6-2.2,14.4-6.1,14.4-11.8c0-1.6-1.5-3.4-4.5-5.4c-3.1-1.9-4.6-4.3-4.6-7.1
	c0-2.5,0.8-4.5,2.4-6C9.8,0.8,11.9,0,14.5,0c3.2,0,5.8,1.1,7.9,3.2c2.1,2.1,3.1,4.9,3.1,8.3c0,6.9-2.2,12.7-6.6,17.4
	C14.4,33.7,8.2,36.9,0,38.5z M28.2,38.5l0.5-5.9c9.6-2.2,14.4-6.1,14.4-11.8c0-1.6-1.5-3.4-4.5-5.4c-3.1-1.9-4.6-4.3-4.6-7.1
	c0-2.5,0.8-4.5,2.3-6C37.8,0.8,39.9,0,42.6,0c3.2,0,5.8,1.1,7.9,3.2c2.1,2.1,3.1,4.9,3.1,8.3c0,7-2.2,12.8-6.6,17.5
	C42.5,33.8,36.3,36.9,28.2,38.5z"/> </symbol><symbol viewBox="0 0 12.2 8.3" id="shape-icon-down"><title>icon-down</title>  <g> <polygon points="6.1,8.3 0,1.3 1.5,0 6.1,5.2 10.7,0 12.2,1.3 	"/> </g> </symbol><symbol viewBox="0 0 14 14" id="shape-icon-download"><title>icon-download</title>  <g> <polygon fill="#FFFFFF" points="11.3,4.2 9.9,3 7.9,5.2 7.9,0 5.9,0 5.9,5.2 4,3 2.6,4.2 7,9.2 	"/> <polygon fill="#FFFFFF" points="12,6 12,12 2,12 2,6 0,6 0,12 0,14 2,14 12,14 14,14 14,12 14,6 	"/> </g> </symbol><symbol viewBox="0 0 32 32" id="shape-icon-evento"><title>icon-evento</title>  <g> <g> <g> <path d="M16,0C7.2,0,0,7.2,0,16s7.2,16,16,16s16-7.2,16-16S24.8,0,16,0z M16,30C8.3,30,2,23.7,2,16S8.3,2,16,2
				s14,6.3,14,14S23.7,30,16,30z"/> </g> </g> <g> <g> <path d="M23.2,10H8.8C8.4,10,8,10.4,8,10.8v12.4C8,23.6,8.4,24,8.8,24h14.4c0.4,0,0.8-0.4,0.8-0.8V10.8
				C24,10.4,23.6,10,23.2,10z M22.5,21.6c0,0.5-0.4,0.9-0.9,0.9H10.4c-0.5,0-0.9-0.4-0.9-0.9v-7.1h13V21.6z"/> </g> </g> <path d="M12.3,11.5h-0.5c-0.4,0-0.7-0.3-0.7-0.7V9.2c0-0.4,0.3-0.7,0.7-0.7h0.5c0.4,0,0.7,0.3,0.7,0.7v1.5
		C13,11.2,12.7,11.5,12.3,11.5z"/> <path d="M16.3,11.5h-0.5c-0.4,0-0.7-0.3-0.7-0.7V9.2c0-0.4,0.3-0.7,0.7-0.7h0.5c0.4,0,0.7,0.3,0.7,0.7v1.5
		C17,11.2,16.7,11.5,16.3,11.5z"/> <path d="M20.3,11.5h-0.5c-0.4,0-0.7-0.3-0.7-0.7V9.2c0-0.4,0.3-0.7,0.7-0.7h0.5c0.4,0,0.7,0.3,0.7,0.7v1.5
		C21,11.2,20.7,11.5,20.3,11.5z"/> </g> </symbol><symbol viewBox="0 0 32 32" id="shape-icon-facebook"><title>icon-facebook</title>  <g> <g> <g> <path d="M16,0C7.2,0,0,7.2,0,16s7.2,16,16,16s16-7.2,16-16S24.8,0,16,0z M16,30C8.3,30,2,23.7,2,16
				C2,8.3,8.3,2,16,2s14,6.3,14,14C30,23.7,23.7,30,16,30z"/> </g> </g> <path id="icon-facebook-XMLID_1_" d="M19.9,16h-2.2v8h-3.3v-8h-1.6v-2.8h1.6v-1.8c0-1.3,0.6-3.4,3.4-3.4l2.5,0v2.7h-1.8
		c-0.3,0-0.7,0.1-0.7,0.8v1.7h2.5L19.9,16z"/> </g> </symbol><symbol viewBox="0 0 32 32" id="shape-icon-instagram"><title>icon-instagram</title>  <g> <g> <g> <path d="M16,0C7.2,0,0,7.2,0,16s7.2,16,16,16s16-7.2,16-16S24.8,0,16,0z M16,30C8.3,30,2,23.7,2,16
				C2,8.3,8.3,2,16,2s14,6.3,14,14C30,23.7,23.7,30,16,30z"/> </g> </g> <g> <path d="M15.9,9.4c2.1,0,2.4,0,3.2,0c0.8,0,1.2,0.2,1.5,0.3c0.4,0.1,0.6,0.3,0.9,0.6c0.3,0.3,0.5,0.5,0.6,0.9
			c0.1,0.3,0.2,0.7,0.3,1.5c0,0.8,0,1.1,0,3.2s0,2.4,0,3.2c0,0.8-0.2,1.2-0.3,1.5c-0.1,0.4-0.3,0.6-0.6,0.9
			c-0.3,0.3-0.5,0.5-0.9,0.6c-0.3,0.1-0.7,0.2-1.5,0.3c-0.8,0-1.1,0-3.2,0s-2.4,0-3.2,0c-0.8,0-1.2-0.2-1.5-0.3
			c-0.4-0.1-0.6-0.3-0.9-0.6c-0.3-0.3-0.5-0.5-0.6-0.9c-0.1-0.3-0.2-0.7-0.3-1.5c0-0.8,0-1.1,0-3.2s0-2.4,0-3.2
			c0-0.8,0.2-1.2,0.3-1.5c0.1-0.4,0.3-0.6,0.6-0.9c0.3-0.3,0.5-0.5,0.9-0.6c0.3-0.1,0.7-0.2,1.5-0.3C13.5,9.4,13.7,9.4,15.9,9.4
			 M15.9,8c-2.2,0-2.4,0-3.3,0c-0.9,0-1.4,0.2-1.9,0.4c-0.5,0.2-1,0.5-1.4,0.9c-0.4,0.4-0.7,0.9-0.9,1.4c-0.2,0.5-0.3,1.1-0.4,1.9
			c0,0.9,0,1.1,0,3.3c0,2.2,0,2.4,0,3.3c0,0.9,0.2,1.4,0.4,1.9c0.2,0.5,0.5,1,0.9,1.4c0.4,0.4,0.9,0.7,1.4,0.9
			c0.5,0.2,1.1,0.3,1.9,0.4c0.9,0,1.1,0,3.3,0s2.4,0,3.3,0c0.9,0,1.4-0.2,1.9-0.4c0.5-0.2,1-0.5,1.4-0.9c0.4-0.4,0.7-0.9,0.9-1.4
			c0.2-0.5,0.3-1.1,0.4-1.9c0-0.9,0-1.1,0-3.3s0-2.4,0-3.3c0-0.9-0.2-1.4-0.4-1.9c-0.2-0.5-0.5-1-0.9-1.4c-0.4-0.4-0.9-0.7-1.4-0.9
			C20.6,8.2,20,8.1,19.2,8C18.3,8,18.1,8,15.9,8L15.9,8z"/> <path d="M15.9,11.9c-2.3,0-4.1,1.8-4.1,4.1s1.8,4.1,4.1,4.1S20,18.3,20,16S18.1,11.9,15.9,11.9z M15.9,18.7
			c-1.5,0-2.7-1.2-2.7-2.7s1.2-2.7,2.7-2.7s2.7,1.2,2.7,2.7S17.4,18.7,15.9,18.7z"/> <circle cx="20.1" cy="11.7" r="1"/> </g> </g> </symbol><symbol viewBox="0 0 11.8 14" id="shape-icon-lang"><title>icon-lang</title>  <g> <g> <path d="M11.8,1.2H1.3V0H0v14h1.3V9h10.5l-2-3.9L11.8,1.2z M8.7,5.8l1,2.1H1.2V2.5h8.5l-1,2.1L8.4,5.2L8.7,5.8z"/> </g> </g> </symbol><symbol viewBox="0 0 32 32" id="shape-icon-linkedin"><title>icon-linkedin</title>  <g> <g> <g> <path d="M16,0C7.2,0,0,7.2,0,16s7.2,16,16,16s16-7.2,16-16S24.8,0,16,0z M16,30C8.3,30,2,23.7,2,16
				C2,8.3,8.3,2,16,2s14,6.3,14,14C30,23.7,23.7,30,16,30z"/> </g> </g> <path d="M19.9,13.1c-1.8,0-2.6,1-3.1,1.7v-1.5h-3.4c0,1,0,10.3,0,10.3h3.4v-5.8c0-0.3,0-0.6,0.1-0.8
		c0.2-0.6,0.8-1.3,1.8-1.3c1.2,0,1.7,0.9,1.7,2.3v5.5h3.4v-5.9C23.9,14.6,22.2,13.1,19.9,13.1L19.9,13.1z M16.8,14.8L16.8,14.8
		C16.8,14.8,16.8,14.8,16.8,14.8L16.8,14.8z M16.8,14.8 M8.1,13.3h3.4v10.3H8.1V13.3z M9.8,8.4c-1.2,0-1.9,0.8-1.9,1.8
		c0,1,0.7,1.8,1.9,1.8h0c1.2,0,1.9-0.8,1.9-1.8C11.7,9.1,11,8.4,9.8,8.4L9.8,8.4z M9.8,8.4"/> </g> </symbol><symbol viewBox="0 0 14 14" id="shape-icon-lupa"><title>icon-lupa</title>  <path id="icon-lupa-XMLID_1_" d="M12.9,14c-0.3,0-0.6-0.1-0.8-0.3l-2.9-2.9c-1,0.7-2.2,1-3.4,1C2.6,11.8,0,9.2,0,5.9
	S2.6,0,5.9,0s5.9,2.7,5.9,5.9c0,1.2-0.4,2.4-1,3.4l2.9,2.9c0.2,0.2,0.3,0.5,0.3,0.8C14,13.5,13.5,14,12.9,14z M5.9,1.5
	c-2.4,0-4.4,2-4.4,4.4s2,4.4,4.4,4.4s4.4-2,4.4-4.4S8.3,1.5,5.9,1.5z"/> </symbol><symbol viewBox="0 0 16 12" id="shape-icon-menu"><title>icon-menu</title>  <g> <rect y="5" width="12" height="2"/> <rect width="16" height="2"/> <rect y="10" width="14" height="2"/> </g> </symbol><symbol viewBox="0 0 8.3 12.2" id="shape-icon-next"><title>icon-next</title>  <g> <polygon points="8.3,6.1 1.3,12.2 0,10.7 5.2,6.1 0,1.5 1.3,0 	"/> </g> </symbol><symbol viewBox="0 0 53.6 38.5" id="shape-icon-openquote"><title>icon-openquote</title>  <path d="M25.5,0l-0.5,5.9C15.4,8,10.6,12,10.6,17.7c0,1.6,1.5,3.4,4.6,5.4c3,1.9,4.5,4.3,4.5,7.1
	c0,2.5-0.8,4.5-2.4,6c-1.6,1.5-3.7,2.3-6.3,2.3c-3.1,0-5.7-1.1-7.8-3.2C1.1,33.2,0,30.4,0,27c0-6.8,2.2-12.5,6.5-17.3
	C10.9,4.9,17.2,1.7,25.5,0z M53.6,0L53,5.9C43.5,8.1,38.7,12,38.7,17.7c0,1.6,1.5,3.4,4.6,5.4c3,1.9,4.5,4.3,4.5,7.1
	c0,2.5-0.8,4.5-2.4,6c-1.6,1.5-3.7,2.3-6.4,2.3c-3.1,0-5.7-1.1-7.8-3.2c-2.1-2.1-3.1-4.9-3.1-8.3c0-6.9,2.2-12.7,6.5-17.4
	C39,4.8,45.3,1.6,53.6,0z"/> </symbol><symbol viewBox="0 0 32 32" id="shape-icon-paper"><title>icon-paper</title>  <g> <g> <g> <path d="M16,0C7.2,0,0,7.2,0,16s7.2,16,16,16s16-7.2,16-16S24.8,0,16,0z M16,30C8.3,30,2,23.7,2,16S8.3,2,16,2
				s14,6.3,14,14S23.7,30,16,30z"/> </g> </g> <g> <g> <path d="M21.7,11.7l-3.4-3.4C18.1,8.1,17.9,8,17.6,8h-6.8C10.4,8,10,8.4,10,8.8v14.4c0,0.4,0.4,0.8,0.8,0.8h10.4
				c0.4,0,0.8-0.4,0.8-0.8V12.4C22,12.1,21.9,11.9,21.7,11.7z M20,22h-8V10h4v3.1c0,0.5,0.4,0.9,0.9,0.9H20V22z"/> </g> </g> </g> </symbol><symbol viewBox="0 0 32 32" id="shape-icon-pluma"><title>icon-pluma</title>  <g> <g> <g> <path d="M16,0C7.2,0,0,7.2,0,16s7.2,16,16,16s16-7.2,16-16S24.8,0,16,0z M16,30C8.3,30,2,23.7,2,16S8.3,2,16,2
				s14,6.3,14,14S23.7,30,16,30z"/> </g> </g> <path d="M14.8,16.7c1.3-0.4,3.2-0.6,4.3-0.7c0.5-0.6,0.7-0.9,1.1-1.5c-0.6-0.3-1.8-0.5-3-0.5c1-0.3,3-0.8,4.1-0.9
		c0.4-0.7,0.7-1.2,1-1.8c-0.5-0.1-2.1-0.3-3-0.1c0.8-0.4,2.8-0.9,3.7-1.1c0.6-1.2,0.9-2,0.9-2s-5.5,0.1-9.6,4.9
		C10.7,16.8,7.9,24,7.9,24s0.8,0,1.2-0.3c0.5-0.5,1.2-2.3,2.7-4.3c2.3,0.5,4.3-0.5,6-2C17.2,17,16.3,16.7,14.8,16.7z"/> </g> </symbol><symbol viewBox="0 0 32 32" id="shape-icon-popular"><title>icon-popular</title>  <g> <g> <g> <path d="M16,0C7.2,0,0,7.2,0,16s7.2,16,16,16s16-7.2,16-16S24.8,0,16,0z M16,30C8.3,30,2,23.7,2,16S8.3,2,16,2
				s14,6.3,14,14S23.7,30,16,30z"/> </g> </g> <polygon points="23.4,15.8 23.4,8.7 17,12.3 19.3,13.5 16.5,18.1 11.7,15.8 7.4,22.7 9.2,23.7 12.5,18.4 17.4,20.7 
		21.1,14.5 	"/> </g> </symbol><symbol viewBox="0 0 8.3 12.2" id="shape-icon-prev"><title>icon-prev</title>  <g> <polygon points="0,6.1 7,0 8.3,1.5 3,6.1 8.3,10.7 7,12.2 	"/> </g> </symbol><symbol viewBox="0 0 16 13.9" id="shape-icon-send"><title>icon-send</title>  <polygon points="0,0 0,5.5 7.5,6.9 0,8.4 0,13.9 16,6.9 "/> </symbol><symbol viewBox="0 0 16 16" id="shape-icon-share"><title>icon-share</title>  <path fill="#FFFFFF" d="M12.9,9.7c-0.8,0-1.6,0.3-2.2,0.9L6.2,8.4c0-0.2,0-0.4,0-0.6c0-0.1,0-0.1,0-0.2l4.5-2.2
	c0.6,0.5,1.3,0.9,2.2,0.9c1.7,0,3.1-1.4,3.1-3.1S14.6,0,12.9,0S9.7,1.4,9.7,3.1c0,0.1,0,0.3,0,0.4L5.3,5.8C4.7,5.2,3.8,4.8,2.9,4.9
	C1.2,5-0.1,6.5,0,8.2c0.1,1.7,1.6,3,3.3,2.9c0.8,0,1.4-0.4,2-0.9l4.5,2.2c0,0.1,0,0.2,0,0.4c0,1.7,1.4,3.1,3.1,3.1s3.1-1.4,3.1-3.1
	S14.6,9.7,12.9,9.7z"/> </symbol><symbol viewBox="0 0 32 32" id="shape-icon-twitter"><title>icon-twitter</title>  <g> <g> <g> <path d="M16,0C7.2,0,0,7.2,0,16s7.2,16,16,16s16-7.2,16-16S24.8,0,16,0z M16,30C8.3,30,2,23.7,2,16
				C2,8.3,8.3,2,16,2s14,6.3,14,14C30,23.7,23.7,30,16,30z"/> </g> </g> <path id="icon-twitter-XMLID_1_" d="M22.5,12.7c0,0.1,0,0.3,0,0.4c0,4.3-3.3,9.3-9.3,9.3c-1.9,0-3.6-0.5-5-1.5c0.3,0,0.5,0,0.8,0
		c1.5,0,3-0.5,4.1-1.4c-1.4,0-2.6-1-3.1-2.3c0.2,0,0.4,0.1,0.6,0.1c0.3,0,0.6,0,0.9-0.1c-1.5-0.3-2.6-1.6-2.6-3.2c0,0,0,0,0,0
		c0.4,0.2,0.9,0.4,1.5,0.4c-0.9-0.6-1.5-1.6-1.5-2.7c0-0.6,0.2-1.2,0.4-1.6c1.6,2,4,3.3,6.8,3.4C16,13.3,16,13,16,12.8
		c0-1.8,1.5-3.3,3.3-3.3c0.9,0,1.8,0.4,2.4,1c0.7-0.1,1.5-0.4,2.1-0.8c-0.2,0.8-0.8,1.4-1.4,1.8c0.7-0.1,1.3-0.3,1.9-0.5
		C23.7,11.7,23.2,12.3,22.5,12.7L22.5,12.7z"/> </g> </symbol><symbol viewBox="0 0 32 32" id="shape-icon-ultimo"><title>icon-ultimo</title>  <g> <g> <g> <path d="M16,0C7.2,0,0,7.2,0,16s7.2,16,16,16s16-7.2,16-16S24.8,0,16,0z M16,30C8.3,30,2,23.7,2,16S8.3,2,16,2
				s14,6.3,14,14S23.7,30,16,30z"/> </g> </g> <polyline display="none" stroke="#2DCCA4" stroke-width="3" stroke-linecap="round" stroke-linejoin="round" stroke-miterlimit="10" points="
		15.2,8 15.2,18.7 22.8,14.1 	"/> <path d="M15.9,20.1h-2.4c-0.3,0-0.5-0.2-0.5-0.5v-13c0-0.3,0.2-0.5,0.5-0.5h2c0.3,0,0.5,0.2,0.5,0.5v9.6
		c0,0.2,0.2,0.3,0.4,0.2l5.2-3c0.2-0.1,0.5-0.1,0.7,0.2l1,1.8c0.1,0.2,0.1,0.5-0.2,0.7l-6.9,4C16,20.1,16,20.1,15.9,20.1z"/> </g> </symbol><symbol viewBox="0 0 32 32" id="shape-icon-video"><title>icon-video</title>  <g> <g> <g> <path d="M16,0C7.2,0,0,7.2,0,16s7.2,16,16,16s16-7.2,16-16S24.8,0,16,0z M16,30C8.3,30,2,23.7,2,16S8.3,2,16,2
				s14,6.3,14,14S23.7,30,16,30z"/> </g> </g> <path d="M9,23.5v-15C9,8.1,9.4,7.8,9.8,8l14.4,7.5c0.4,0.2,0.4,0.8,0,1L9.8,24C9.4,24.2,9,23.9,9,23.5z"/> </g> </symbol><symbol viewBox="0 0 32 32" id="shape-icon-youtube"><title>icon-youtube</title> <g> <g> <g> <path class="st0" d="M16,0C7.2,0,0,7.2,0,16s7.2,16,16,16s16-7.2,16-16S24.8,0,16,0z M16,30C8.3,30,2,23.7,2,16C2,8.3,8.3,2,16,2
				s14,6.3,14,14C30,23.7,23.7,30,16,30z"/> </g> </g> <path class="st0" d="M23.9,13c0-1.3-1-2.3-2.3-2.3c-1.8-0.1-3.7-0.1-5.6-0.1c-1.9,0-3.8,0-5.6,0.1c-1.3,0-2.3,1-2.3,2.3
		C8,14,8,15,8,16c0,1,0,2,0.1,3c0,1.3,1,2.3,2.3,2.3c1.8,0.1,3.7,0.1,5.6,0.1c1.9,0,3.8,0,5.6-0.1c1.3,0,2.3-1,2.3-2.3
		c0.1-1,0.1-2,0.1-3C24,15,24,14,23.9,13z M19.5,16.2L14.1,19c-0.2,0.1-0.3,0-0.3-0.2v-5.6c0-0.2,0.1-0.3,0.3-0.2l5.4,2.8
		C19.7,15.9,19.7,16.1,19.5,16.2z"/> </g> </symbol><symbol viewBox="0 0 7.8 16" id="shape-share-facebook"><title>share-facebook</title>  <path id="share-facebook-facebook_2_" d="M2,16V8.5H0V5.8h2c0,0,0-1.1,0-2.3C2,1.7,3.2,0,5.9,0C7,0,7.8,0.1,7.8,0.1L7.7,2.6
	c0,0-0.8,0-1.7,0c-1,0-1.1,0.4-1.1,1.2c0,0.6,0-1.3,0,2h2.9L7.6,8.5H4.8V16H2z"/> </symbol><symbol viewBox="0 0 16 12.3" id="shape-share-gplus"><title>share-gplus</title>  <g> <g> <path d="M12.3,5.5H6.5v1.9H10C9.5,9,8,10.2,6.1,10.2C3.9,10.2,2,8.4,2,6.1C2,3.9,3.9,2,6.1,2C7.3,2,8.3,2.5,9,3.3
			l1.4-1.5C9.3,0.7,7.8,0,6.1,0C2.7,0,0,2.7,0,6.1s2.7,6.1,6.1,6.1c3,0,5.6-2.1,6.1-4.9L12.3,5.5L12.3,5.5L12.3,5.5z"/> <polygon points="16,5.5 14.8,5.5 14.8,4.3 13.8,4.3 13.8,5.5 12.7,5.5 12.7,6.5 13.8,6.5 13.8,7.6 14.8,7.6 
			14.8,6.5 16,6.5 		"/> </g> </g> </symbol><symbol viewBox="0 0 14 13.4" id="shape-share-linkedin"><title>share-linkedin</title>  <path fill-rule="evenodd" clip-rule="evenodd" d="M3.2,13.4v-9h-3v9H3.2L3.2,13.4z M1.7,3.1c1,0,1.7-0.7,1.7-1.6
	C3.4,0.7,2.7,0,1.7,0C0.7,0,0,0.7,0,1.6C0,2.4,0.7,3.1,1.7,3.1L1.7,3.1L1.7,3.1z M4.8,13.4c0,0,0-8.2,0-9h3v1.3h0
	C8.2,5,8.9,4.1,10.5,4.1c2,0,3.5,1.3,3.5,4.1v5.2h-3V8.6c0-1.2-0.4-2-1.5-2c-0.8,0-1.3,0.6-1.5,1.1C7.9,7.8,7.8,8.1,7.8,8.3v5H4.8
	L4.8,13.4z"/> </symbol><symbol viewBox="0 0 16 13.3" id="shape-share-mail"><title>share-mail</title>  <path id="share-mail-XMLID_1_" d="M14.5,0H1.5C0.7,0,0,0.7,0,1.5v10.2c0,0.9,0.7,1.5,1.5,1.5h12.9c0.9,0,1.5-0.7,1.5-1.5V1.5
	C16,0.7,15.3,0,14.5,0z M13.1,2L8,7.1L2.9,2H13.1z M2,11.3V3l5.5,5.6C7.7,8.7,7.8,8.8,8,8.8s0.3-0.1,0.5-0.2L14,3v8.4H2z"/> </symbol><symbol viewBox="0 0 16 13" id="shape-share-twitter"><title>share-twitter</title>  <path id="share-twitter-XMLID_1_" d="M14.4,3.2c0,0.1,0,0.3,0,0.4C14.4,8,11.1,13,5,13c-1.9,0-3.6-0.5-5-1.5c0.3,0,0.5,0,0.8,0
	c1.5,0,3-0.5,4.1-1.4c-1.4,0-2.6-1-3.1-2.3c0.2,0,0.4,0.1,0.6,0.1c0.3,0,0.6,0,0.9-0.1C1.8,7.5,0.6,6.2,0.6,4.6c0,0,0,0,0,0
	C1.1,4.8,1.6,5,2.1,5C1.2,4.4,0.7,3.4,0.7,2.3c0-0.6,0.2-1.2,0.4-1.7c1.6,2,4,3.3,6.8,3.4C7.8,3.8,7.8,3.5,7.8,3.3
	C7.8,1.5,9.3,0,11.1,0c0.9,0,1.8,0.4,2.4,1c0.7-0.1,1.5-0.4,2.1-0.8c-0.2,0.8-0.8,1.4-1.4,1.8C14.8,2,15.4,1.8,16,1.5
	C15.6,2.2,15,2.8,14.4,3.2z"/> </symbol></svg>